<?xml version="1.0" encoding="utf-8"?>
<!-- Generator: Adobe Illustrator 24.1.2, SVG Export Plug-In . SVG Version: 6.00 Build 0)  -->
<svg version="1.1" id="Layer_1" xmlns="http://www.w3.org/2000/svg" xmlns:xlink="http://www.w3.org/1999/xlink" x="0px" y="0px"
	 viewBox="0 0 444 621" style="enable-background:new 0 0 444 621;" xml:space="preserve">
<style type="text/css">
	.st0{fill:#E44D26;}
	.st1{fill:#F16529;}
	.st2{fill:#EBEBEB;}
	.st3{fill:#FFFFFF;}
</style>
<polygon class="st0" points="44.2,567.3 4.7,124.8 438.3,124.8 398.8,567.3 221.2,616.5 "/>
<polygon class="st1" points="221.5,578.9 365,539.1 398.7,161 221.5,161 "/>
<polygon class="st2" points="221.5,325.1 149.7,325.1 144.7,269.5 221.5,269.5 221.5,215.2 221.3,215.2 85.4,215.2 86.7,229.8 
	100,379.4 221.5,379.4 "/>
<polygon class="st2" points="221.5,466.1 221.3,466.1 160.8,449.8 156.9,406.5 127.6,406.5 102.5,406.5 110.1,491.8 221.3,522.6 
	221.5,522.5 "/>
<path d="M45.1,4.5h27.6v27.3h25.2V4.5h27.6V87H97.9V59.4H72.6V87H45.1L45.1,4.5L45.1,4.5z"/>
<path d="M161.7,31.9h-24.3V4.5h76.2v27.4h-24.3V87h-27.6L161.7,31.9L161.7,31.9z"/>
<path d="M225.7,4.5h28.8l17.7,29l17.7-29h28.8V87h-27.5V46.1l-19,29.3h-0.5l-19-29.3V87h-27L225.7,4.5L225.7,4.5z"/>
<path d="M332.3,4.5h27.6v55.3h38.8V87h-66.4V4.5z"/>
<polygon class="st3" points="221.3,325.1 221.3,379.4 288.2,379.4 281.9,449.8 221.3,466.1 221.3,522.6 332.6,491.8 333.4,482.6 
	346.2,339.7 347.5,325.1 332.9,325.1 "/>
<polygon class="st3" points="221.3,215.2 221.3,249 221.3,269.4 221.3,269.5 352.2,269.5 352.2,269.5 352.4,269.5 353.5,257.3 
	356,229.8 357.3,215.2 "/>
</svg>
